<svg width="368" height="36" viewBox="0 0 368 36" fill="none" xmlns="http://www.w3.org/2000/svg">
<path d="M19.0131 26.9913H15.3401L9.92065 16.7107H3.20486V26.9913H0V1.55475H10.2447C10.9289 1.55475 11.5651 1.60186 12.1532 1.69607C13.5216 1.90804 14.6859 2.36142 15.6462 3.05622C16.6064 3.73923 17.3326 4.60478 17.8248 5.65286C18.3169 6.70094 18.563 7.8609 18.563 9.13272C18.563 10.1808 18.3589 11.1877 17.9508 12.1533C17.5547 13.1072 16.9665 13.9492 16.1863 14.6793C15.4061 15.4094 14.4639 15.9452 13.3596 16.2868L19.0131 26.9913ZM3.20486 4.54001V13.7254H10.1367C10.8689 13.7254 11.409 13.6724 11.7571 13.5665C12.9335 13.2249 13.8157 12.6538 14.4038 11.853C14.992 11.0405 15.2861 10.1337 15.2861 9.13272C15.2861 8.48503 15.16 7.85501 14.908 7.24265C14.6559 6.63029 14.2658 6.10036 13.7377 5.65286C13.2095 5.19359 12.5493 4.87563 11.7571 4.69899C11.289 4.59301 10.7489 4.54001 10.1367 4.54001H3.20486Z" fill="#F5F6F1"/>
<path d="M25.4273 18.3358C25.5593 20.326 26.1295 21.8569 27.1377 22.9285C28.158 24.0002 29.5624 24.536 31.3509 24.536C32.6232 24.536 33.7335 24.2475 34.6818 23.6704C35.642 23.0934 36.3922 22.2632 36.9324 21.1798L40.0112 22.222C39.255 23.8942 38.1207 25.1954 36.6083 26.1258C35.0959 27.0561 33.3914 27.5212 31.4949 27.5212C29.5984 27.5212 27.93 27.1091 26.4896 26.2847C25.0612 25.4604 23.9509 24.2946 23.1587 22.7872C22.3785 21.2799 21.9884 19.5429 21.9884 17.5762C21.9884 15.5154 22.3725 13.7195 23.1407 12.1886C23.9209 10.646 25.0132 9.46246 26.4176 8.63812C27.8339 7.80202 29.4784 7.38396 31.3509 7.38396C33.2114 7.38396 34.8138 7.79613 36.1582 8.62046C37.5145 9.43302 38.5528 10.6047 39.273 12.1357C39.9932 13.6548 40.3533 15.4624 40.3533 17.5586C40.3533 17.9001 40.3473 18.1592 40.3353 18.3358H25.4273ZM31.4589 10.2102C29.7184 10.2102 28.3441 10.6872 27.3358 11.6411C26.3275 12.5949 25.7094 13.9845 25.4813 15.8098H37.0044C36.6083 12.0768 34.7598 10.2102 31.4589 10.2102Z" fill="#F5F6F1"/>
<path d="M52.5361 27.5212C50.6035 27.5212 48.9411 27.0973 47.5487 26.2494C46.1684 25.3897 45.1121 24.2003 44.3799 22.6812C43.6597 21.1621 43.2876 19.4192 43.2636 17.4526C43.2876 15.4624 43.6657 13.7078 44.3979 12.1886C45.1421 10.6695 46.2104 9.4919 47.6027 8.65579C48.9951 7.8079 50.6516 7.38396 52.5721 7.38396C53.9284 7.38396 55.1708 7.60771 56.2991 8.0552C57.4274 8.5027 58.3816 9.1445 59.1618 9.98061C59.954 10.8167 60.5182 11.8 60.8543 12.9305L57.6854 13.8667C57.2773 12.7716 56.6111 11.9178 55.6869 11.3054C54.7747 10.6813 53.7244 10.3692 52.5361 10.3692C50.6035 10.3692 49.1452 11.011 48.1609 12.2946C47.1886 13.5782 46.6905 15.2976 46.6665 17.4526C46.6905 19.643 47.2006 21.3741 48.1969 22.6459C49.2052 23.9059 50.6516 24.536 52.5361 24.536C55.0207 24.536 56.7132 23.4231 57.6134 21.1974L60.8543 22.0276C60.1701 23.8058 59.1138 25.166 57.6854 26.1081C56.2571 27.0502 54.5406 27.5212 52.5361 27.5212Z" fill="#F5F6F1"/>
<path d="M72.2837 27.5212C70.3752 27.5212 68.7127 27.0973 67.2963 26.2494C65.892 25.3897 64.8117 24.2003 64.0555 22.6812C63.2993 21.1503 62.9212 19.4016 62.9212 17.4349C62.9212 15.4565 63.3053 13.7078 64.0735 12.1886C64.8417 10.6695 65.934 9.4919 67.3503 8.65579C68.7667 7.8079 70.4112 7.38396 72.2837 7.38396C74.1922 7.38396 75.8546 7.8079 77.271 8.65579C78.6874 9.50367 79.7737 10.6872 80.5299 12.2063C81.2861 13.7254 81.6642 15.4683 81.6642 17.4349C81.6642 19.4251 81.2801 21.1856 80.5119 22.7165C79.7557 24.2357 78.6694 25.4192 77.253 26.2671C75.8366 27.1032 74.1802 27.5212 72.2837 27.5212ZM72.2837 24.536C74.2402 24.536 75.7226 23.9001 76.7309 22.6282C77.7511 21.3446 78.2613 19.6135 78.2613 17.4349C78.2613 15.2328 77.7511 13.5076 76.7309 12.2593C75.7106 10.9992 74.2282 10.3692 72.2837 10.3692C70.3151 10.3692 68.8267 11.0051 67.8185 12.277C66.8222 13.5488 66.3241 15.2681 66.3241 17.4349C66.3241 19.6371 66.8342 21.3741 67.8545 22.6459C68.8868 23.9059 70.3632 24.536 72.2837 24.536Z" fill="#F5F6F1"/>
<path d="M90.1475 9.07973C90.6877 8.65579 91.3238 8.33194 92.056 8.1082C92.7882 7.88445 93.5264 7.77258 94.2706 7.77258C94.7388 7.77258 95.2009 7.81968 95.657 7.91389V10.8638C95.1529 10.7461 94.6667 10.6872 94.1986 10.6872C93.0343 10.6872 92.038 10.9875 91.2098 11.5881C90.3336 12.2004 89.7214 13.0071 89.3733 14.0081C89.0252 14.9973 88.8512 16.1337 88.8512 17.4173V26.9913H85.6283V7.91389H88.4911V10.9345C88.9472 10.1573 89.4994 9.539 90.1475 9.07973Z" fill="#F5F6F1"/>
<path d="M112.069 1.55475H115.292V26.9913H112.43V24.8363C111.697 25.6959 110.821 26.3613 109.801 26.8323C108.781 27.2916 107.628 27.5212 106.344 27.5212C104.567 27.5212 103.019 27.0855 101.699 26.2141C100.39 25.3309 99.3821 24.1297 98.6739 22.6106C97.9777 21.0797 97.6296 19.3545 97.6296 17.4349C97.6296 15.5272 97.9777 13.8138 98.6739 12.2946C99.3821 10.7637 100.39 9.56255 101.699 8.69112C103.019 7.81968 104.561 7.38396 106.326 7.38396C107.514 7.38396 108.589 7.57827 109.549 7.96688C110.521 8.3555 111.361 8.91487 112.069 9.64499V1.55475ZM106.74 24.642C108.625 24.642 110.041 23.9884 110.989 22.6812C111.949 21.3741 112.43 19.6253 112.43 17.4349C112.43 15.2446 111.955 13.5017 111.007 12.2063C110.059 10.9109 108.667 10.2632 106.83 10.2632C105.558 10.2632 104.483 10.5753 103.607 11.1994C102.743 11.8236 102.095 12.6774 101.663 13.7608C101.243 14.8324 101.033 16.0571 101.033 17.4349C101.033 18.8245 101.243 20.061 101.663 21.1444C102.095 22.2278 102.737 23.0816 103.589 23.7057C104.453 24.3299 105.504 24.642 106.74 24.642Z" fill="#F5F6F1"/>
<path d="M123.902 26.9913H120.697V7.91389H123.902V26.9913ZM122.299 4.96396C121.711 4.96396 121.213 4.76965 120.805 4.38103C120.409 3.98065 120.211 3.49193 120.211 2.9149C120.211 2.33787 120.409 1.85504 120.805 1.46643C121.213 1.06604 121.711 0.865845 122.299 0.865845C122.899 0.865845 123.398 1.06604 123.794 1.46643C124.202 1.85504 124.406 2.33787 124.406 2.9149C124.406 3.49193 124.202 3.98065 123.794 4.38103C123.398 4.76965 122.899 4.96396 122.299 4.96396Z" fill="#F5F6F1"/>
<path d="M138.649 7.41929C140.593 7.41929 142.141 7.89034 143.294 8.83243C144.446 9.77453 145.25 10.9286 145.706 12.2946C146.163 13.6489 146.391 15.0326 146.391 16.4457V26.9913H143.15V17.4349C143.15 15.3859 142.742 13.7019 141.925 12.383C141.121 11.064 139.771 10.4046 137.874 10.4046C136.218 10.4046 134.91 10.958 133.949 12.065C133.001 13.1602 132.527 14.7853 132.527 16.9403V26.9913H129.286V7.91389H132.167V10.3692C132.899 9.41535 133.811 8.68523 134.904 8.17885C136.008 7.67248 137.256 7.41929 138.649 7.41929Z" fill="#F5F6F1"/>
<path d="M164.791 7.91389H167.636V27.115C167.636 28.2572 167.558 29.2347 167.402 30.0472C167.03 32.0374 166.118 33.5271 164.665 34.5163C163.213 35.5055 161.304 36.0001 158.94 36.0001C157.343 36.0001 155.855 35.6409 154.474 34.9226C153.106 34.216 152.032 33.1797 151.252 31.8136L154.186 30.2945C154.643 31.1895 155.297 31.8549 156.149 32.2906C157.013 32.7381 157.949 32.9618 158.958 32.9618C162.631 32.9618 164.449 31.0011 164.413 27.0796V25.2425C163.705 25.9727 162.871 26.5379 161.91 26.9383C160.95 27.3269 159.882 27.5212 158.706 27.5212C156.929 27.5212 155.381 27.0855 154.06 26.2141C152.752 25.3309 151.744 24.1297 151.036 22.6106C150.339 21.0797 149.991 19.3545 149.991 17.4349C149.991 15.5272 150.339 13.8138 151.036 12.2946C151.744 10.7637 152.752 9.56255 154.06 8.69112C155.381 7.81968 156.923 7.38396 158.688 7.38396C159.984 7.38396 161.142 7.6136 162.163 8.07287C163.183 8.53214 164.059 9.1916 164.791 10.0513V7.91389ZM159.102 24.642C160.986 24.642 162.403 23.9884 163.351 22.6812C164.311 21.3741 164.791 19.6253 164.791 17.4349C164.791 15.2446 164.317 13.5017 163.369 12.2063C162.421 10.9109 161.028 10.2632 159.192 10.2632C157.919 10.2632 156.845 10.5753 155.969 11.1994C155.105 11.8236 154.456 12.6774 154.024 13.7608C153.604 14.8324 153.394 16.0571 153.394 17.4349C153.394 18.8245 153.604 20.061 154.024 21.1444C154.456 22.2278 155.099 23.0816 155.951 23.7057C156.815 24.3299 157.865 24.642 159.102 24.642Z" fill="#F5F6F1"/>
<path d="M181.864 27.5212C180.039 27.5212 178.389 27.215 176.912 26.6027C175.436 25.9903 174.218 25.113 173.257 23.9707C172.309 22.8284 171.691 21.4859 171.403 19.9433L174.716 19.431C174.992 20.4909 175.472 21.4035 176.156 22.169C176.852 22.9344 177.705 23.5232 178.713 23.9354C179.721 24.3358 180.825 24.536 182.026 24.536C183.19 24.536 184.246 24.3534 185.195 23.9884C186.143 23.6233 186.887 23.1052 187.427 22.4339C187.979 21.7627 188.255 20.9737 188.255 20.0669C188.255 19.0542 187.925 18.2593 187.265 17.6822C186.605 17.1052 185.729 16.6577 184.636 16.3397L178.029 14.4143C176.348 13.9315 174.992 13.2014 173.96 12.224C172.927 11.2465 172.411 9.89818 172.411 8.17885C172.411 6.71861 172.801 5.45267 173.582 4.38103C174.362 3.29763 175.436 2.47329 176.804 1.90804C178.173 1.331 179.715 1.04249 181.432 1.04249C183.16 1.04249 184.72 1.34278 186.113 1.94336C187.505 2.53217 188.658 3.38595 189.57 4.50469C190.482 5.61165 191.094 6.93647 191.406 8.47915L188.003 9.06207C187.823 8.04932 187.421 7.16021 186.797 6.39476C186.173 5.62931 185.387 5.04639 184.438 4.646C183.502 4.23383 182.476 4.02775 181.36 4.02775C180.315 4.02775 179.367 4.20439 178.515 4.55768C177.675 4.89919 177.008 5.37612 176.516 5.98848C176.036 6.58907 175.796 7.27209 175.796 8.03754C175.796 8.76766 176.006 9.37414 176.426 9.85696C176.846 10.3398 177.357 10.7166 177.957 10.9875C178.569 11.2583 179.289 11.5056 180.117 11.7294L185.051 13.1249C186.167 13.431 187.175 13.802 188.075 14.2377C188.988 14.6616 189.798 15.3388 190.506 16.2691C191.214 17.1876 191.568 18.3947 191.568 19.8903C191.568 21.48 191.142 22.852 190.29 24.006C189.438 25.1601 188.273 26.0374 186.797 26.638C185.333 27.2268 183.688 27.5212 181.864 27.5212Z" fill="#F5F6F1"/>
<path d="M200.332 10.5105V20.6675C200.332 21.2681 200.356 21.7509 200.404 22.116C200.452 22.481 200.561 22.799 200.729 23.0698C201.017 23.5762 201.425 23.9413 201.953 24.165C202.493 24.3888 203.153 24.5006 203.933 24.5006C204.498 24.5006 205.254 24.43 206.202 24.2887V26.9913C205.206 27.1915 204.245 27.2916 203.321 27.2916C202.037 27.2916 200.909 27.0855 199.936 26.6733C198.976 26.2494 198.262 25.5899 197.794 24.6949C197.518 24.165 197.338 23.6233 197.254 23.0698C197.17 22.5164 197.128 21.8274 197.128 21.0031V10.5105H193.185V7.91389H197.128V2.61461H200.332V7.91389H206.202V10.5105H200.332Z" fill="#F5F6F1"/>
<path d="M223.653 7.91389H226.876V26.9913H224.014V24.536C223.281 25.4898 222.363 26.22 221.259 26.7263C220.167 27.2327 218.924 27.4859 217.532 27.4859C215.587 27.4859 214.039 27.0149 212.887 26.0728C211.734 25.1307 210.93 23.9825 210.474 22.6282C210.018 21.2622 209.79 19.8726 209.79 18.4595V7.91389H213.031V17.4703C213.031 19.5193 213.433 21.2033 214.237 22.5222C215.053 23.8412 216.41 24.5006 218.306 24.5006C219.962 24.5006 221.265 23.953 222.213 22.8579C223.173 21.7509 223.653 20.1199 223.653 17.9649V7.91389Z" fill="#F5F6F1"/>
<path d="M245.277 1.55475H248.5V26.9913H245.637V24.8363C244.905 25.6959 244.029 26.3613 243.008 26.8323C241.988 27.2916 240.836 27.5212 239.551 27.5212C237.775 27.5212 236.227 27.0855 234.906 26.2141C233.598 25.3309 232.59 24.1297 231.881 22.6106C231.185 21.0797 230.837 19.3545 230.837 17.4349C230.837 15.5272 231.185 13.8138 231.881 12.2946C232.59 10.7637 233.598 9.56255 234.906 8.69112C236.227 7.81968 237.769 7.38396 239.533 7.38396C240.722 7.38396 241.796 7.57827 242.756 7.96688C243.729 8.3555 244.569 8.91487 245.277 9.64499V1.55475ZM239.947 24.642C241.832 24.642 243.248 23.9884 244.197 22.6812C245.157 21.3741 245.637 19.6253 245.637 17.4349C245.637 15.2446 245.163 13.5017 244.215 12.2063C243.266 10.9109 241.874 10.2632 240.038 10.2632C238.765 10.2632 237.691 10.5753 236.815 11.1994C235.95 11.8236 235.302 12.6774 234.87 13.7608C234.45 14.8324 234.24 16.0571 234.24 17.4349C234.24 18.8245 234.45 20.061 234.87 21.1444C235.302 22.2278 235.944 23.0816 236.797 23.7057C237.661 24.3299 238.711 24.642 239.947 24.642Z" fill="#F5F6F1"/>
<path d="M257.109 26.9913H253.904V7.91389H257.109V26.9913ZM255.507 4.96396C254.919 4.96396 254.42 4.76965 254.012 4.38103C253.616 3.98065 253.418 3.49193 253.418 2.9149C253.418 2.33787 253.616 1.85504 254.012 1.46643C254.42 1.06604 254.919 0.865845 255.507 0.865845C256.107 0.865845 256.605 1.06604 257.001 1.46643C257.409 1.85504 257.613 2.33787 257.613 2.9149C257.613 3.49193 257.409 3.98065 257.001 4.38103C256.605 4.76965 256.107 4.96396 255.507 4.96396Z" fill="#F5F6F1"/>
<path d="M270.794 27.5212C268.885 27.5212 267.223 27.0973 265.806 26.2494C264.402 25.3897 263.322 24.2003 262.565 22.6812C261.809 21.1503 261.431 19.4016 261.431 17.4349C261.431 15.4565 261.815 13.7078 262.583 12.1886C263.352 10.6695 264.444 9.4919 265.86 8.65579C267.277 7.8079 268.921 7.38396 270.794 7.38396C272.702 7.38396 274.365 7.8079 275.781 8.65579C277.197 9.50367 278.284 10.6872 279.04 12.2063C279.796 13.7254 280.174 15.4683 280.174 17.4349C280.174 19.4251 279.79 21.1856 279.022 22.7165C278.266 24.2357 277.179 25.4192 275.763 26.2671C274.347 27.1032 272.69 27.5212 270.794 27.5212ZM270.794 24.536C272.75 24.536 274.233 23.9001 275.241 22.6282C276.261 21.3446 276.771 19.6135 276.771 17.4349C276.771 15.2328 276.261 13.5076 275.241 12.2593C274.221 10.9992 272.738 10.3692 270.794 10.3692C268.825 10.3692 267.337 11.0051 266.328 12.277C265.332 13.5488 264.834 15.2681 264.834 17.4349C264.834 19.6371 265.344 21.3741 266.365 22.6459C267.397 23.9059 268.873 24.536 270.794 24.536Z" fill="#F5F6F1"/>
<path d="M297.81 27.3645H294.767V1.92798H297.684L307.478 22.1889L317.219 1.92798H320.172V27.3469H317.129V8.83471L308.325 27.3645H306.614L297.81 8.83471V27.3645Z" fill="#F5F6F1"/>
<path d="M345.242 27.3645H341.911L339.858 21.4117H328.785L326.751 27.3645H323.42L332.098 1.92798H336.564L345.242 27.3645ZM334.295 5.2312L329.794 18.4617H338.85L334.295 5.2312Z" fill="#F5F6F1"/>
<path d="M350.229 27.3645H346.304L355.217 14.4873L346.538 1.92798H350.446L357.161 11.8376L363.859 1.92798H367.784L359.106 14.4873L368 27.3645H364.093L357.161 17.1546L350.229 27.3645Z" fill="#F5F6F1"/>
<rect x="281.011" width="9.82556" height="9.63972" rx="4.81986" fill="#F5F6F1"/>
</svg>
