<svg width="253" height="26" viewBox="0 0 253 26" fill="none" xmlns="http://www.w3.org/2000/svg">
<path d="M13.0348 18.8611H10.5167L6.80128 11.6771H2.19715V18.8611H0V1.08638H7.02347C7.49252 1.08638 7.92866 1.11929 8.33188 1.18513C9.26999 1.33325 10.0682 1.65007 10.7265 2.13558C11.3848 2.61286 11.8827 3.21769 12.2201 3.95008C12.5575 4.68246 12.7262 5.49302 12.7262 6.38175C12.7262 7.11413 12.5863 7.81771 12.3065 8.49249C12.0349 9.15904 11.6317 9.74742 11.0968 10.2576C10.5619 10.7678 9.91597 11.1422 9.1589 11.3809L13.0348 18.8611ZM2.19715 3.17243V9.59107H6.9494C7.45138 9.59107 7.82168 9.55404 8.06032 9.47998C8.86677 9.24133 9.4716 8.84223 9.87482 8.28265C10.278 7.71485 10.4797 7.08122 10.4797 6.38175C10.4797 5.92915 10.3932 5.4889 10.2204 5.06099C10.0476 4.63308 9.78019 4.26278 9.41811 3.95008C9.05603 3.62914 8.60344 3.40696 8.06032 3.28353C7.73939 3.20946 7.36908 3.17243 6.9494 3.17243H2.19715Z" fill="black"/>
<path d="M17.4321 12.8127C17.5227 14.2034 17.9135 15.2732 18.6048 16.022C19.3042 16.7709 20.267 17.1453 21.4932 17.1453C22.3654 17.1453 23.1266 16.9437 23.7767 16.5405C24.435 16.1373 24.9494 15.5571 25.3197 14.8L27.4304 15.5283C26.912 16.6968 26.1343 17.6061 25.0975 18.2562C24.0606 18.9063 22.8921 19.2314 21.5919 19.2314C20.2917 19.2314 19.1479 18.9433 18.1604 18.3673C17.1812 17.7913 16.42 16.9766 15.8769 15.9233C15.342 14.87 15.0745 13.6562 15.0745 12.282C15.0745 10.8419 15.3379 9.58695 15.8645 8.51718C16.3994 7.43918 17.1482 6.61216 18.111 6.03613C19.0821 5.45187 20.2094 5.15974 21.4932 5.15974C22.7687 5.15974 23.8672 5.44776 24.7889 6.02379C25.7188 6.59159 26.4306 7.41038 26.9243 8.48015C27.4181 9.54169 27.6649 10.8048 27.6649 12.2696C27.6649 12.5083 27.6608 12.6893 27.6526 12.8127H17.4321ZM21.5672 7.13471C20.374 7.13471 19.4318 7.46798 18.7406 8.13453C18.0493 8.80108 17.6255 9.77211 17.4692 11.0476H25.369C25.0975 8.43901 23.8302 7.13471 21.5672 7.13471Z" fill="black"/>
<path d="M36.0171 19.2314C34.6922 19.2314 33.5525 18.9351 32.5979 18.3426C31.6516 17.7419 30.9274 16.9108 30.4254 15.8492C29.9317 14.7877 29.6766 13.5698 29.6601 12.1956C29.6766 10.8048 29.9358 9.57872 30.4378 8.51718C30.948 7.45564 31.6804 6.63274 32.6349 6.04847C33.5895 5.45599 34.7251 5.15974 36.0417 5.15974C36.9716 5.15974 37.8233 5.31609 38.5969 5.6288C39.3704 5.9415 40.0246 6.38998 40.5595 6.97424C41.1026 7.5585 41.4894 8.24562 41.7198 9.03561L39.5473 9.68982C39.2675 8.92452 38.8108 8.32791 38.1772 7.9C37.5518 7.46387 36.8317 7.2458 36.0171 7.2458C34.6922 7.2458 33.6924 7.69428 33.0176 8.59124C32.351 9.4882 32.0095 10.6896 31.9931 12.1956C32.0095 13.7261 32.3593 14.9358 33.0423 15.8245C33.7335 16.7051 34.7251 17.1453 36.0171 17.1453C37.7205 17.1453 38.8808 16.3677 39.4979 14.8124L41.7198 15.3925C41.2507 16.6351 40.5266 17.5856 39.5473 18.2439C38.5681 18.9022 37.3913 19.2314 36.0171 19.2314Z" fill="black"/>
<path d="M49.5554 19.2314C48.247 19.2314 47.1073 18.9351 46.1362 18.3426C45.1734 17.7419 44.4328 16.9108 43.9144 15.8492C43.396 14.7795 43.1368 13.5575 43.1368 12.1832C43.1368 10.8007 43.4001 9.57872 43.9267 8.51718C44.4534 7.45564 45.2022 6.63274 46.1733 6.04847C47.1443 5.45599 48.2717 5.15974 49.5554 5.15974C50.8638 5.15974 52.0035 5.45599 52.9746 6.04847C53.9456 6.64096 54.6903 7.46798 55.2087 8.52952C55.7272 9.59107 55.9864 10.809 55.9864 12.1832C55.9864 13.5739 55.723 14.8041 55.1964 15.8739C54.678 16.9355 53.9332 17.7625 52.9622 18.355C51.9912 18.9392 50.8556 19.2314 49.5554 19.2314ZM49.5554 17.1453C50.8967 17.1453 51.913 16.7009 52.6042 15.8122C53.3037 14.9152 53.6534 13.7056 53.6534 12.1832C53.6534 10.6444 53.3037 9.43883 52.6042 8.56655C51.9048 7.68605 50.8885 7.2458 49.5554 7.2458C48.2058 7.2458 47.1854 7.69016 46.4942 8.5789C45.8112 9.46763 45.4697 10.6691 45.4697 12.1832C45.4697 13.722 45.8194 14.9358 46.5189 15.8245C47.2266 16.7051 48.2388 17.1453 49.5554 17.1453Z" fill="black"/>
<path d="M61.8023 6.34472C62.1726 6.04848 62.6087 5.82218 63.1107 5.66583C63.6127 5.50947 64.1188 5.4313 64.629 5.4313C64.9499 5.4313 65.2667 5.46422 65.5794 5.53005V7.59142C65.2338 7.50913 64.9005 7.46798 64.5796 7.46798C63.7814 7.46798 63.0984 7.67782 62.5306 8.0975C61.9298 8.52541 61.5102 9.0891 61.2715 9.78856C61.0329 10.4798 60.9136 11.2739 60.9136 12.1709V18.8611H58.7041V5.53005H60.6667V7.64079C60.9794 7.09768 61.3579 6.66565 61.8023 6.34472Z" fill="black"/>
<path d="M76.8313 1.08638H79.0408V18.8611H77.0782V17.3551C76.5762 17.9559 75.9755 18.4208 75.276 18.75C74.5766 19.0709 73.7866 19.2314 72.9061 19.2314C71.6882 19.2314 70.6266 18.9269 69.7214 18.3179C68.8245 17.7008 68.1332 16.8614 67.6477 15.7999C67.1704 14.7301 66.9318 13.5245 66.9318 12.1832C66.9318 10.8501 67.1704 9.65279 67.6477 8.59124C68.1332 7.52147 68.8245 6.68211 69.7214 6.07316C70.6266 5.46422 71.6841 5.15974 72.8937 5.15974C73.7084 5.15974 74.4449 5.29552 75.1032 5.56708C75.7698 5.83864 76.3458 6.22951 76.8313 6.73971V1.08638ZM73.1776 17.2194C74.4696 17.2194 75.4406 16.7627 76.0907 15.8492C76.749 14.9358 77.0782 13.7138 77.0782 12.1832C77.0782 10.6526 76.7531 9.43472 76.103 8.52952C75.4529 7.62433 74.4984 7.17174 73.2393 7.17174C72.3671 7.17174 71.6306 7.38981 71.0298 7.82594C70.4374 8.26208 69.993 8.85869 69.6967 9.61575C69.4087 10.3646 69.2647 11.2204 69.2647 12.1832C69.2647 13.1542 69.4087 14.0183 69.6967 14.7753C69.993 15.5324 70.4332 16.129 71.0175 16.5652C71.61 17.0013 72.33 17.2194 73.1776 17.2194Z" fill="black"/>
<path d="M84.9431 18.8611H82.746V5.53005H84.9431V18.8611ZM83.8446 3.46868C83.4413 3.46868 83.0998 3.3329 82.82 3.06134C82.5485 2.78156 82.4127 2.44005 82.4127 2.03683C82.4127 1.63361 82.5485 1.29622 82.82 1.02466C83.0998 0.744874 83.4413 0.60498 83.8446 0.60498C84.256 0.60498 84.5975 0.744874 84.8691 1.02466C85.1489 1.29622 85.2887 1.63361 85.2887 2.03683C85.2887 2.44005 85.1489 2.78156 84.8691 3.06134C84.5975 3.3329 84.256 3.46868 83.8446 3.46868Z" fill="black"/>
<path d="M95.0531 5.18443C96.3862 5.18443 97.4477 5.51359 98.2377 6.17191C99.0277 6.83023 99.579 7.63668 99.8917 8.59124C100.204 9.53758 100.361 10.5045 100.361 11.492V18.8611H98.1389V12.1832C98.1389 10.7514 97.8591 9.57461 97.2996 8.65296C96.7482 7.73131 95.8225 7.27048 94.5223 7.27048C93.3867 7.27048 92.4897 7.65725 91.8314 8.43078C91.1813 9.19607 90.8563 10.3317 90.8563 11.8376V18.8611H88.6344V5.53005H90.6094V7.2458C91.1114 6.57925 91.7368 6.06905 92.4856 5.7152C93.2427 5.36135 94.0985 5.18443 95.0531 5.18443Z" fill="black"/>
<path d="M112.976 5.53005H114.926V18.9475C114.926 19.7457 114.872 20.4287 114.765 20.9965C114.51 22.3872 113.885 23.4282 112.889 24.1194C111.894 24.8106 110.585 25.1563 108.964 25.1563C107.87 25.1563 106.849 24.9053 105.903 24.4033C104.965 23.9096 104.228 23.1854 103.693 22.2308L105.705 21.1693C106.018 21.7947 106.467 22.2596 107.051 22.5641C107.643 22.8768 108.285 23.0332 108.976 23.0332C111.494 23.0332 112.741 21.663 112.716 18.9228V17.639C112.231 18.1492 111.659 18.5442 111.001 18.824C110.342 19.0956 109.61 19.2314 108.804 19.2314C107.586 19.2314 106.524 18.9269 105.619 18.3179C104.722 17.7008 104.031 16.8614 103.545 15.7999C103.068 14.7301 102.829 13.5245 102.829 12.1832C102.829 10.8501 103.068 9.65279 103.545 8.59124C104.031 7.52147 104.722 6.68211 105.619 6.07316C106.524 5.46422 107.582 5.15974 108.791 5.15974C109.68 5.15974 110.474 5.32021 111.174 5.64114C111.873 5.96207 112.474 6.4229 112.976 7.02361V5.53005ZM109.075 17.2194C110.367 17.2194 111.338 16.7627 111.988 15.8492C112.646 14.9358 112.976 13.7138 112.976 12.1832C112.976 10.6526 112.651 9.43472 112.001 8.52952C111.35 7.62433 110.396 7.17174 109.137 7.17174C108.265 7.17174 107.528 7.38981 106.927 7.82594C106.335 8.26208 105.89 8.85869 105.594 9.61575C105.306 10.3646 105.162 11.2204 105.162 12.1832C105.162 13.1542 105.306 14.0183 105.594 14.7753C105.89 15.5324 106.331 16.129 106.915 16.5652C107.507 17.0013 108.228 17.2194 109.075 17.2194Z" fill="black"/>
<path d="M124.68 19.2314C123.429 19.2314 122.298 19.0174 121.286 18.5895C120.273 18.1616 119.438 17.5485 118.78 16.7503C118.13 15.9521 117.706 15.014 117.508 13.936L119.78 13.578C119.969 14.3186 120.298 14.9564 120.767 15.4913C121.244 16.0262 121.829 16.4376 122.52 16.7256C123.211 17.0054 123.968 17.1453 124.791 17.1453C125.589 17.1453 126.313 17.0178 126.964 16.7627C127.614 16.5076 128.124 16.1455 128.494 15.6764C128.873 15.2074 129.062 14.656 129.062 14.0224C129.062 13.3147 128.836 12.7592 128.383 12.356C127.93 11.9528 127.33 11.6401 126.581 11.4179L122.051 10.0725C120.899 9.73507 119.969 9.22488 119.261 8.54187C118.554 7.85886 118.2 6.91664 118.2 5.7152C118.2 4.6948 118.467 3.81018 119.002 3.06134C119.537 2.30427 120.273 1.72824 121.211 1.33325C122.15 0.930027 123.207 0.728416 124.384 0.728416C125.569 0.728416 126.639 0.938255 127.593 1.35794C128.548 1.76939 129.338 2.36599 129.963 3.14775C130.588 3.92128 131.008 4.84704 131.222 5.92504L128.889 6.33238C128.766 5.62468 128.49 5.00339 128.062 4.4685C127.634 3.93362 127.095 3.52628 126.445 3.24649C125.803 2.95848 125.1 2.81447 124.334 2.81447C123.618 2.81447 122.968 2.93791 122.384 3.18478C121.808 3.42342 121.351 3.75669 121.014 4.1846C120.685 4.60428 120.52 5.08157 120.52 5.61645C120.52 6.12665 120.664 6.55045 120.952 6.88784C121.24 7.22522 121.59 7.48855 122.001 7.67782C122.421 7.86709 122.915 8.0399 123.483 8.19625L126.865 9.17139C127.63 9.38534 128.321 9.64456 128.939 9.94903C129.564 10.2453 130.119 10.7184 130.605 11.3685C131.09 12.0104 131.333 12.8539 131.333 13.899C131.333 15.0099 131.041 15.9686 130.457 16.775C129.873 17.5814 129.074 18.1945 128.062 18.6142C127.058 19.0256 125.931 19.2314 124.68 19.2314Z" fill="black"/>
<path d="M137.342 7.34455V14.4421C137.342 14.8618 137.358 15.1991 137.391 15.4542C137.424 15.7093 137.498 15.9315 137.613 16.1208C137.811 16.4746 138.09 16.7297 138.453 16.8861C138.823 17.0424 139.275 17.1206 139.81 17.1206C140.197 17.1206 140.715 17.0712 141.366 16.9725V18.8611C140.683 19.0009 140.024 19.0709 139.391 19.0709C138.51 19.0709 137.737 18.9269 137.07 18.6389C136.412 18.3426 135.922 17.8818 135.601 17.2564C135.412 16.8861 135.288 16.5076 135.231 16.1208C135.173 15.734 135.144 15.2526 135.144 14.6766V7.34455H132.441V5.53005H135.144V1.82699H137.342V5.53005H141.366V7.34455H137.342Z" fill="black"/>
<path d="M153.33 5.53005H155.539V18.8611H153.577V17.1453C153.075 17.8119 152.445 18.3221 151.688 18.6759C150.939 19.0297 150.087 19.2067 149.133 19.2067C147.8 19.2067 146.738 18.8775 145.948 18.2192C145.158 17.5609 144.607 16.7585 144.294 15.8122C143.982 14.8576 143.825 13.8866 143.825 12.8991V5.53005H146.047V12.2079C146.047 13.6397 146.323 14.8165 146.874 15.7381C147.434 16.6598 148.364 17.1206 149.664 17.1206C150.799 17.1206 151.692 16.738 152.342 15.9727C153.001 15.1991 153.33 14.0594 153.33 12.5535V5.53005Z" fill="black"/>
<path d="M168.154 1.08638H170.364V18.8611H168.401V17.3551C167.899 17.9559 167.298 18.4208 166.599 18.75C165.899 19.0709 165.109 19.2314 164.229 19.2314C163.011 19.2314 161.949 18.9269 161.044 18.3179C160.147 17.7008 159.456 16.8614 158.971 15.7999C158.493 14.7301 158.255 13.5245 158.255 12.1832C158.255 10.8501 158.493 9.65279 158.971 8.59124C159.456 7.52147 160.147 6.68211 161.044 6.07316C161.949 5.46422 163.007 5.15974 164.217 5.15974C165.031 5.15974 165.768 5.29552 166.426 5.56708C167.093 5.83864 167.669 6.22951 168.154 6.73971V1.08638ZM164.5 17.2194C165.792 17.2194 166.763 16.7627 167.413 15.8492C168.072 14.9358 168.401 13.7138 168.401 12.1832C168.401 10.6526 168.076 9.43472 167.426 8.52952C166.776 7.62433 165.821 7.17174 164.562 7.17174C163.69 7.17174 162.953 7.38981 162.353 7.82594C161.76 8.26208 161.316 8.85869 161.02 9.61575C160.732 10.3646 160.588 11.2204 160.588 12.1832C160.588 13.1542 160.732 14.0183 161.02 14.7753C161.316 15.5324 161.756 16.129 162.34 16.5652C162.933 17.0013 163.653 17.2194 164.5 17.2194Z" fill="black"/>
<path d="M176.266 18.8611H174.069V5.53005H176.266V18.8611ZM175.167 3.46868C174.764 3.46868 174.423 3.3329 174.143 3.06134C173.871 2.78156 173.736 2.44005 173.736 2.03683C173.736 1.63361 173.871 1.29622 174.143 1.02466C174.423 0.744874 174.764 0.60498 175.167 0.60498C175.579 0.60498 175.92 0.744874 176.192 1.02466C176.472 1.29622 176.612 1.63361 176.612 2.03683C176.612 2.44005 176.472 2.78156 176.192 3.06134C175.92 3.3329 175.579 3.46868 175.167 3.46868Z" fill="black"/>
<path d="M185.648 19.2314C184.339 19.2314 183.199 18.9351 182.228 18.3426C181.266 17.7419 180.525 16.9108 180.007 15.8492C179.488 14.7795 179.229 13.5575 179.229 12.1832C179.229 10.8007 179.492 9.57872 180.019 8.51718C180.546 7.45564 181.294 6.63274 182.265 6.04847C183.236 5.45599 184.364 5.15974 185.648 5.15974C186.956 5.15974 188.096 5.45599 189.067 6.04847C190.038 6.64096 190.782 7.46798 191.301 8.52952C191.819 9.59107 192.079 10.809 192.079 12.1832C192.079 13.5739 191.815 14.8041 191.289 15.8739C190.77 16.9355 190.025 17.7625 189.054 18.355C188.083 18.9392 186.948 19.2314 185.648 19.2314ZM185.648 17.1453C186.989 17.1453 188.005 16.7009 188.696 15.8122C189.396 14.9152 189.746 13.7056 189.746 12.1832C189.746 10.6444 189.396 9.43883 188.696 8.56655C187.997 7.68605 186.981 7.2458 185.648 7.2458C184.298 7.2458 183.278 7.69016 182.586 8.5789C181.903 9.46763 181.562 10.6691 181.562 12.1832C181.562 13.722 181.912 14.9358 182.611 15.8245C183.319 16.7051 184.331 17.1453 185.648 17.1453Z" fill="black"/>
<path d="M204.169 19.1218H202.083V1.34717H204.082L210.797 15.5052L217.475 1.34717H219.5V19.1095H217.414V6.17349L211.378 19.1218H210.205L204.169 6.17349V19.1218Z" fill="black"/>
<path d="M236.687 19.1218H234.403L232.996 14.9621H225.405L224.01 19.1218H221.726L227.676 1.34717H230.737L236.687 19.1218ZM229.182 3.65541L226.096 12.9007H232.305L229.182 3.65541Z" fill="black"/>
<path d="M240.106 19.1218H237.415L243.525 10.1234L237.576 1.34717H240.254L244.858 8.27189L249.45 1.34717H252.141L246.191 10.1234L252.289 19.1218H249.611L244.858 11.9873L240.106 19.1218Z" fill="black"/>
<rect x="192.652" width="6.73609" height="6.73609" rx="3.36805" fill="black"/>
</svg>
