<svg width="44" height="35" viewBox="0 0 44 35" fill="none" xmlns="http://www.w3.org/2000/svg">
<path d="M32.6395 8.98163C32.3932 8.504 31.87 8.68311 31.6392 8.83237L22.7137 14.4296L15.0194 19.4298C12.3725 21.3404 9.84333 20.8507 8.4022 20.5493L3.0931 19.1313C-0.96953 17.997 0.415352 16.284 1.70811 15.6237C14.45 9.11598 32.8703 2.61322 40.4877 0.175299C43.5655 -0.541149 43.3033 2.56111 43.1038 4.50384L41.9496 12.6385L40.0261 23.7584L38.3333 32.2662C37.5725 35.4113 34.6148 34.5235 33.255 33.9081L20.0976 25.3256C17.6354 23.6539 19.8259 21.7386 21.0979 20.5493L28.7153 13.5341L32.5625 9.72794C32.7472 9.48912 32.6908 9.13089 32.6395 8.98163Z" fill="white"/>
</svg>
