<svg width="38" height="38" viewBox="0 0 38 38" fill="none" xmlns="http://www.w3.org/2000/svg">
<path d="M36.653 18.6174C36.653 28.5781 28.578 36.6529 18.6174 36.6529C8.65643 36.6529 0.581793 28.5782 0.581793 18.6174C0.581793 8.65661 8.65643 0.581793 18.6174 0.581793C28.578 0.581793 36.653 8.65662 36.653 18.6174Z" stroke="black" stroke-width="1.16359"/>
<path d="M19.5528 25.599C12.3969 25.599 8.31528 20.7944 8.1452 12.7996H11.7297C11.8475 18.6676 14.49 21.1531 16.5831 21.6656V12.7996H19.9585V17.8604C22.0254 17.6426 24.1968 15.3364 24.9294 12.7996H28.3047C27.7422 15.9258 25.3874 18.2319 23.7129 19.18C25.3874 19.9488 28.0694 21.9603 29.0898 25.599H25.3743C24.5763 23.1647 22.588 21.2813 19.9585 21.025V25.599H19.5528Z" fill="black"/>
</svg>
