<svg width="38" height="38" viewBox="0 0 38 38" fill="none" xmlns="http://www.w3.org/2000/svg">
<mask id="path-1-inside-1_73_289" fill="white">
<path d="M37.2603 18.6301C37.2603 28.9193 28.9193 37.2603 18.6301 37.2603C8.341 37.2603 0 28.9193 0 18.6301C0 8.341 8.341 0 18.6301 0C28.9193 0 37.2603 8.341 37.2603 18.6301Z"/>
</mask>
<path d="M36.0559 18.6301C36.0559 28.2541 28.2541 36.0559 18.6301 36.0559V38.4647C29.5844 38.4647 38.4647 29.5844 38.4647 18.6301H36.0559ZM18.6301 36.0559C9.00616 36.0559 1.20439 28.2541 1.20439 18.6301H-1.20439C-1.20439 29.5844 7.67583 38.4647 18.6301 38.4647V36.0559ZM1.20439 18.6301C1.20439 9.00616 9.00616 1.20439 18.6301 1.20439V-1.20439C7.67583 -1.20439 -1.20439 7.67583 -1.20439 18.6301H1.20439ZM18.6301 1.20439C28.2541 1.20439 36.0559 9.00616 36.0559 18.6301H38.4647C38.4647 7.67583 29.5844 -1.20439 18.6301 -1.20439V1.20439Z" fill="#0C0C0C" mask="url(#path-1-inside-1_73_289)"/>
<path d="M22.0552 15.6642C21.9415 15.4399 21.7 15.524 21.5934 15.5941L17.4731 18.2225L13.9211 20.5705C12.6992 21.4676 11.5316 21.2377 10.8664 21.0961L8.41548 20.4303C6.54001 19.8976 7.17933 19.0932 7.77611 18.7832C13.6582 15.7273 22.1618 12.6738 25.6783 11.529C27.0991 11.1925 26.978 12.6493 26.8859 13.5615L26.3531 17.3814L25.4651 22.603L24.6837 26.5981C24.3325 28.075 22.9671 27.6581 22.3394 27.3691L16.2654 23.339C15.1288 22.554 16.14 21.6546 16.7272 21.0961L20.2437 17.8019L22.0197 16.0147C22.1049 15.9025 22.0789 15.7343 22.0552 15.6642Z" fill="#0C0C0C"/>
</svg>
