<svg width="38" height="38" viewBox="0 0 38 38" fill="none" xmlns="http://www.w3.org/2000/svg">
<path d="M37.3349 18.6174C37.3349 28.5781 29.2599 36.6529 19.2993 36.6529C9.33831 36.6529 1.26368 28.5782 1.26368 18.6174C1.26368 8.65661 9.33832 0.581793 19.2993 0.581793C29.2599 0.581793 37.3349 8.65662 37.3349 18.6174Z" stroke="black" stroke-width="1.16359"/>
<path d="M33.4474 14.9104L33.3268 14.346L28.5809 13.5148L31.3437 9.77185L31.0258 9.40499L26.9646 11.3624L27.4778 6.17509L27.0623 5.93138L24.5916 10.1387L21.826 3.87646H21.3385L21.998 9.91805L15.0249 4.31517L14.4374 4.48703L19.7966 11.2649L9.17828 7.71693L8.68842 8.25566L18.1808 13.6867L5.09178 14.7873L4.9455 15.5954L18.5473 17.0859L7.19551 26.5318L7.68538 27.1912L21.1899 19.8027L18.5243 32.8197H19.3325L24.5173 20.5621L27.6751 30.1517L28.2369 29.7104L26.9417 19.9746L31.8569 25.5775L32.1751 25.0618L28.4089 18.1146L33.668 20.0721L33.7171 19.4846L28.9964 15.9853L33.4474 14.9104Z" fill="black"/>
</svg>
