<svg width="256" height="256" viewBox="0 0 256 256" fill="none" xmlns="http://www.w3.org/2000/svg">
<path d="M8.731 3.65373C4.2293 6.17891 1.03455 14.8768 2.34149 21.7509C2.77714 24.1358 3.50322 73.3768 3.93887 131.316C4.37452 189.114 1.61125 239.986 2.0469 242.511C2.48255 245.176 8.00492 246.913 10.764 249.158C15.1205 252.665 15.5562 252.805 31.3847 251.963C40.2429 251.542 68.7052 253.641 94.6989 252.94C214.502 249.433 243.691 253.226 246.159 251.963C253.42 248.316 253.275 244.248 252.984 125.704C252.984 65.0998 252.258 14.035 251.677 12.3516C249.209 6.31921 244.997 4.07458 234.542 3.65373C229.169 3.37315 177.036 2.812 118.66 2.39113C26.3021 1.6897 12.2162 1.82999 8.731 3.65373ZM73.2069 78.0063C74.6591 84.7401 73.933 87.1251 70.0122 87.1251C66.6722 87.1251 66.527 86.7042 68.8504 82.9164C71.1739 79.4092 69.5765 78.0063 65.8009 80.1106C63.6227 81.233 62.7514 82.9164 62.7514 86.4236C62.7514 91.6143 61.0088 93.438 57.3784 92.1754C55.781 91.474 55.6358 90.7725 56.6523 89.5099C57.5236 88.5279 58.3949 84.8804 58.6853 81.5135C59.121 75.7617 59.5566 75.0603 64.2035 73.5171C71.0287 71.2725 71.9 71.6934 73.2069 78.0063ZM198.093 79.4092C197.512 86.143 194.462 90.0711 191.703 87.2653C190.106 85.8625 190.396 85.161 192.574 83.6178C195.043 81.7941 195.043 81.5135 193.01 80.6718C189.235 79.2689 186.185 81.0927 186.185 84.7402C186.185 89.0891 182.409 92.456 180.086 90.2114C178.779 88.9488 179.069 87.9668 180.812 86.0027C182.119 84.5999 183.281 82.215 183.281 80.6718C183.281 76.7437 185.023 74.92 189.089 74.0783C197.221 72.5351 198.528 73.3768 198.093 79.4092ZM86.2764 78.1466C87.7285 79.4092 81.6294 89.9308 79.4512 89.9308C76.4017 89.9308 75.0947 86.8445 77.5634 85.161C78.7251 84.3193 80.4677 82.215 81.4842 80.3912C83.2268 77.3049 84.679 76.6034 86.2764 78.1466ZM176.165 85.0207C175.439 89.3696 174.568 90.6322 172.389 90.6322C170.502 90.6322 169.63 89.9308 170.066 88.5279C170.356 87.4056 170.937 84.8804 171.373 82.9164C172.099 79.1286 174.713 76.7437 176.165 78.4272C176.746 78.9883 176.746 81.9344 176.165 85.0207ZM161.208 97.9272L160.772 115.884L145.525 116.726C137.102 117.147 132.31 117.568 134.779 117.708C140.442 118.129 147.267 124.442 144.072 126.406C141.168 128.229 118.369 128.229 117.207 126.406C115.9 124.301 120.693 118.269 124.178 117.568C125.92 117.287 123.597 116.866 119.095 116.726C114.448 116.726 110.673 115.884 110.673 115.183C110.673 114.341 117.933 113.78 129.406 113.78C139.716 113.78 150.171 113.359 152.64 112.938L157.287 111.956L156.851 97.7869L156.416 83.6178H130.277H104.138L103.702 95.1215C103.412 104.24 102.831 106.765 101.234 106.765C99.491 106.765 99.0554 104.24 99.0554 93.438V80.1106H130.277H161.643L161.208 97.9272ZM51.7149 87.2653C52.7315 93.438 52.0054 95.5423 49.1011 95.5423C47.6489 95.5423 47.2132 93.5783 47.5037 88.8085C47.9393 81.233 47.7941 81.5135 49.5367 81.5135C50.2628 81.5135 51.1341 84.0387 51.7149 87.2653ZM209.42 82.215C209.42 85.3013 204.482 91.3337 202.159 91.3337C198.819 91.3337 198.238 88.8085 201.433 87.6862C202.594 87.2653 203.901 85.7222 204.337 84.179C205.208 81.7941 209.42 80.2509 209.42 82.215ZM123.742 95.402C123.742 100.032 124.323 104.1 125.049 104.661C126.937 105.783 129.26 101.294 128.534 98.3481C128.099 96.9452 128.534 95.402 129.406 94.8409C131.003 93.9991 131.584 94.8409 133.036 101.575C134.488 107.607 136.812 104.661 136.812 96.8049C136.812 91.6143 137.392 89.9308 138.99 89.9308C140.587 89.9308 141.168 91.6143 141.168 97.0855C141.168 105.924 144.508 106.064 145.234 97.2258C145.815 89.9308 147.848 89.5099 148.864 96.5243C149.3 99.4704 150.026 103.258 150.607 104.942L151.624 108.168H129.696C108.785 108.168 106.026 107.607 109.075 104.521C109.801 103.819 110.673 101.855 110.963 100.032C111.544 95.9632 114.158 95.2617 114.739 99.0495C116.336 109.01 120.112 105.924 119.531 94.8409C119.24 88.6682 119.676 87.1251 121.419 87.1251C123.306 87.1251 123.742 88.8085 123.742 95.402ZM90.3424 105.362C90.3424 108.589 86.8572 109.852 80.9034 108.729C76.8373 108.028 75.6756 108.449 73.6426 111.395C71.0287 115.183 71.9 118.55 76.4017 122.197C77.7086 123.179 78.7251 124.862 78.7251 125.985C78.7251 127.528 75.6756 127.809 62.4609 127.528L46.0515 127.107V115.183V103.258L66.3818 102.557C77.5634 102.136 87.5833 102.136 88.5998 102.416C89.4711 102.697 90.3424 103.96 90.3424 105.362ZM212.76 103.539C213.195 104.942 213.486 110.413 213.34 115.884L213.05 125.704L192.139 126.125C176.31 126.406 170.937 125.985 170.066 124.722C168.323 122.197 168.759 104.942 170.502 102.837C171.663 101.715 177.762 101.154 192.139 101.154C210 101.154 212.179 101.434 212.76 103.539ZM105.445 114.481C109.511 118.69 110.963 124.582 109.075 128.229C107.768 130.334 105.881 130.614 94.9893 130.334L82.3555 129.913L81.9199 124.161C81.339 115.884 86.2764 110.974 95.425 110.974C100.653 110.974 102.831 111.675 105.445 114.481ZM80.9034 115.183C80.9034 118.269 76.6921 117.708 76.1112 114.762C75.6756 112.798 76.2564 112.237 78.2895 112.657C79.7416 112.938 80.9034 114.06 80.9034 115.183ZM220.746 133.28C221.472 137.769 219.294 139.452 211.162 140.575L204.337 141.416L212.905 141.697C221.327 141.837 221.472 141.978 232.799 151.798C243.11 160.776 246.304 165.686 243.255 167.51C242.529 167.931 217.842 168.632 188.218 169.193L134.343 170.175L133.472 164.845C132.891 161.898 132.891 159.233 133.181 158.952C133.472 158.532 138.554 158.111 144.363 157.69C160.337 156.848 158.158 155.866 140.152 155.866C122.726 155.866 121.854 155.586 120.112 147.729L119.095 143.24L127.663 143.1C132.31 142.96 137.683 142.398 139.716 141.837C141.749 141.276 138.264 140.996 131.584 141.416C120.112 142.258 119.821 142.118 116.772 138.33C111.254 131.596 112.27 130.755 126.356 130.334C133.326 130.053 157.287 129.913 179.65 129.913H220.311L220.746 133.28ZM70.7382 133.42C70.7382 134.542 68.7052 135.805 66.0913 136.366C63.4774 136.787 59.7018 138.33 57.6688 139.593C55.0549 141.276 51.5697 141.837 46.342 141.557C39.662 141.136 38.7907 140.715 38.3551 137.909C37.3386 130.895 38.3551 130.474 55.0549 130.895C67.6887 131.175 70.7382 131.737 70.7382 133.42ZM111.399 135.805C114.739 139.312 119.386 150.675 119.386 155.445C119.386 156.427 121.999 158.251 125.339 159.514C129.841 161.337 131.003 162.46 130.712 164.845C130.277 167.37 129.115 167.791 122.58 168.211C118.079 168.492 113.867 167.931 112.706 166.949C110.963 165.686 110.673 166.107 110.673 169.755C110.673 174.104 110.818 174.104 117.933 174.104C127.518 174.104 131.148 177.33 130.132 184.906C127.808 201.881 124.613 217.312 122.871 219.978C117.353 228.535 107.768 218.575 109.947 206.51C110.673 202.161 111.98 200.197 115.174 198.373C123.452 193.604 122.145 183.363 112.996 181.819C110.237 181.258 107.768 180.136 107.333 179.294C107.042 178.312 106.607 171.578 106.461 164.283C105.881 141.276 102.395 136.226 86.5668 136.226C77.999 136.226 75.8208 135.384 78.2895 132.999C78.7251 132.438 85.5503 132.017 93.3919 132.017C107.042 132.017 107.768 132.157 111.399 135.805ZM94.8441 140.434C101.96 142.398 103.412 146.186 104.574 167.229L105.59 184.625L111.399 185.327C116.191 185.888 117.353 186.589 117.643 189.395C118.369 194.445 115.9 195.848 104.428 196.55L93.9728 197.251L93.5372 207.352L93.1015 217.593H100.217C108.349 217.593 112.27 220.258 108.494 223.204C106.026 225.168 72.7713 226.992 66.527 225.449C62.6061 224.467 61.2992 220.679 64.6392 219.697C65.5105 219.417 69.5765 218.855 73.3521 218.294L80.3225 217.453L79.8868 207.352L79.4512 197.251L71.0287 196.55C57.3784 195.287 55.4906 191.499 55.4906 163.722C55.4906 144.924 56.3619 142.539 63.4774 140.575C69.5765 138.751 88.4546 138.751 94.8441 140.434ZM53.0219 145.625C54.0384 148.852 53.4575 153.341 52.0054 155.586C51.4245 156.568 47.9393 157.269 43.7281 157.269C39.8072 157.269 36.6125 157.83 36.6125 158.532C36.6125 159.373 39.3716 159.794 42.8568 159.514C51.5697 158.952 52.5862 159.654 52.5862 165.827V171.298H39.9524C32.8369 171.298 24.85 171.719 21.8004 172.14C17.444 172.841 16.2822 172.56 14.8301 170.035C13.3779 167.229 14.2492 165.967 23.8335 156.287C35.596 144.643 37.4838 143.521 46.342 143.38C50.8437 143.24 52.5862 143.801 53.0219 145.625Z" fill="#F0F0F0"/>
<path d="M63.7009 73.5073C61.9009 74.6519 62.2009 74.9381 64.9009 74.9381C66.8509 74.9381 67.9009 74.3658 67.4509 73.5073C66.4009 71.7904 66.5509 71.7904 63.7009 73.5073Z" fill="#F0F0F0"/>
<path d="M191.2 74.9382C191.2 76.7981 192.85 76.7981 195.7 74.9382C197.5 73.7936 197.35 73.5074 194.65 73.5074C192.7 73.5074 191.2 74.0797 191.2 74.9382Z" fill="#F0F0F0"/>
<path d="M52.7521 108.99C49.4521 112.424 49.6021 115.428 52.9021 118.29C56.6521 121.581 58.7521 121.295 61.602 117.145C63.852 113.855 63.852 113.282 61.602 109.992C58.6021 105.699 56.0521 105.413 52.7521 108.99ZM59.2021 112.71C59.2021 113.855 58.6021 115.142 57.8521 115.715C56.0521 116.716 54.2521 113.998 55.4521 112.138C56.8021 109.992 59.2021 110.421 59.2021 112.71Z" fill="#F0F0F0"/>
<path d="M179.65 108.704C176.95 112.71 177.85 115.572 182.5 118.433C185.95 120.437 189.7 117.146 189.7 111.995C189.7 109.42 188.65 107.417 186.85 106.415C182.8 104.412 182.65 104.555 179.65 108.704ZM186.85 113.998C186.1 114.714 184.3 115 182.95 114.427C180.85 113.712 180.7 113.14 182.2 111.423C183.7 109.706 184.6 109.563 186.25 110.85C187.6 111.995 187.75 113.14 186.85 113.998Z" fill="#F0F0F0"/>
<path d="M199.751 107.559C198.251 108.99 197.201 111.136 197.201 112.424C197.201 114.427 201.701 119.292 203.651 119.292C205.601 119.292 209.201 114.713 209.201 112.138C209.201 109.419 205.451 104.984 203.351 104.984C202.751 104.984 201.101 106.129 199.751 107.559ZM205.151 113.712C202.601 116.144 199.601 113.855 201.851 111.279C203.051 109.849 204.101 109.562 205.301 110.707C206.351 111.709 206.351 112.567 205.151 113.712Z" fill="#F0F0F0"/>
<path d="M151.751 140.324C154.451 140.61 159.251 140.61 162.251 140.324C165.401 140.038 163.301 139.752 157.451 139.752C151.751 139.752 149.201 140.038 151.751 140.324Z" fill="#F0F0F0"/>
<path d="M172.152 140.324C174.402 140.61 178.002 140.61 180.402 140.324C182.652 140.038 180.702 139.752 176.202 139.752C171.702 139.752 169.752 140.038 172.152 140.324Z" fill="#F0F0F0"/>
<path d="M188.651 140.324C190.901 140.61 194.201 140.61 196.151 140.324C197.951 140.038 196.151 139.752 191.951 139.752C187.901 139.752 186.251 140.038 188.651 140.324Z" fill="#F0F0F0"/>
<path d="M201.401 140.325C202.451 140.754 203.801 140.611 204.251 140.182C204.851 139.753 203.951 139.324 202.301 139.467C200.651 139.467 200.201 139.896 201.401 140.325Z" fill="#F0F0F0"/>
<path d="M178.451 155.061C176.051 155.633 185.2 156.205 199 156.348C214.75 156.491 224.35 155.919 224.95 155.061C226.15 153.344 185.95 153.487 178.451 155.061Z" fill="#F0F0F0"/>
<path d="M237.143 253.085H17.9419C9.13743 253.085 2 245.947 2 237.143V17.9419C2 9.13743 9.13743 2 17.9419 2H237.143C245.947 2 253.085 9.13743 253.085 17.9419V237.143C253.085 245.947 245.947 253.085 237.143 253.085Z" stroke="#F0F0F0" stroke-width="3.98547"/>
</svg>
